<svg xmlns="http://www.w3.org/2000/svg" width="128" height="128" viewBox="0 0 18 18">
  <metadata><?xpacket begin="﻿" id="W5M0MpCehiHzreSzNTczkc9d"?>
<x:xmpmeta xmlns:x="adobe:ns:meta/" x:xmptk="Adobe XMP Core 5.6-c142 79.160924, 2017/07/13-01:06:39        ">
   <rdf:RDF xmlns:rdf="http://www.w3.org/1999/02/22-rdf-syntax-ns#">
      <rdf:Description rdf:about=""/>
   </rdf:RDF>
</x:xmpmeta>
                                                                                                    
                                                                                                    
                                                                                                    
                                                                                                    
                                                                                                    
                                                                                                    
                                                                                                    
                                                                                                    
                                                                                                    
                                                                                                    
                                                                                                    
                                                                                                    
                                                                                                    
                                                                                                    
                                                                                                    
                                                                                                    
                                                                                                    
                                                                                                    
                                                                                                    
                                                                                                    
                           
<?xpacket end="w"?></metadata>
<defs>
    <style>
      .cls-1 {
        fill: #5da8ff;
        fill-rule: evenodd;
      }
    </style>
  </defs>
  <path id="形状_41" data-name="形状 41" class="cls-1" d="M371,545a9,9,0,1,1,9-9A9,9,0,0,1,371,545Zm0-16.615A7.615,7.615,0,1,0,378.615,536,7.615,7.615,0,0,0,371,528.385Zm3.812,9.72a0.694,0.694,0,0,1-.67-0.177l-3.431-3.431-3.422,3.427a0.7,0.7,0,1,1-.983-0.983l3.918-3.911a0.69,0.69,0,0,1,.492-0.2h0.069a0.692,0.692,0,0,1,.422.2l3.911,3.912A0.693,0.693,0,0,1,374.812,538.105Z" transform="translate(-362 -527)"/>
</svg>
