<svg xmlns="http://www.w3.org/2000/svg" width="128" height="128" viewBox="0 0 18 18">
  <metadata><?xpacket begin="﻿" id="W5M0MpCehiHzreSzNTczkc9d"?>
<x:xmpmeta xmlns:x="adobe:ns:meta/" x:xmptk="Adobe XMP Core 5.6-c142 79.160924, 2017/07/13-01:06:39        ">
   <rdf:RDF xmlns:rdf="http://www.w3.org/1999/02/22-rdf-syntax-ns#">
      <rdf:Description rdf:about=""/>
   </rdf:RDF>
</x:xmpmeta>
                                                                                                    
                                                                                                    
                                                                                                    
                                                                                                    
                                                                                                    
                                                                                                    
                                                                                                    
                                                                                                    
                                                                                                    
                                                                                                    
                                                                                                    
                                                                                                    
                                                                                                    
                                                                                                    
                                                                                                    
                                                                                                    
                                                                                                    
                                                                                                    
                                                                                                    
                                                                                                    
                           
<?xpacket end="w"?></metadata>
<defs>
    <style>
      .cls-1 {
        fill: #62abff;
        fill-rule: evenodd;
      }
    </style>
  </defs>
  <path id="形状_41" data-name="形状 41" class="cls-1" d="M371,589a9,9,0,1,0,9,9A9,9,0,0,0,371,589Zm0,16.615A7.616,7.616,0,1,1,378.615,598,7.615,7.615,0,0,1,371,605.615Zm3.812-9.72a0.694,0.694,0,0,0-.67.177l-3.431,3.431-3.422-3.428a0.7,0.7,0,1,0-.983.983l3.918,3.912a0.69,0.69,0,0,0,.492.2h0.037l0.023,0h0.009a0.7,0.7,0,0,0,.422-0.2l3.911-3.912A0.693,0.693,0,0,0,374.812,595.9Z" transform="translate(-362 -589)"/>
</svg>
