<svg id="组_3" data-name="组 3" xmlns="http://www.w3.org/2000/svg" xmlns:xlink="http://www.w3.org/1999/xlink" width="120.684" height="127.998" viewBox="0 0 33 35">
  <metadata><?xpacket begin="﻿" id="W5M0MpCehiHzreSzNTczkc9d"?>
<x:xmpmeta xmlns:x="adobe:ns:meta/" x:xmptk="Adobe XMP Core 5.6-c142 79.160924, 2017/07/13-01:06:39        ">
   <rdf:RDF xmlns:rdf="http://www.w3.org/1999/02/22-rdf-syntax-ns#">
      <rdf:Description rdf:about=""/>
   </rdf:RDF>
</x:xmpmeta>
                                                                                                    
                                                                                                    
                                                                                                    
                                                                                                    
                                                                                                    
                                                                                                    
                                                                                                    
                                                                                                    
                                                                                                    
                                                                                                    
                                                                                                    
                                                                                                    
                                                                                                    
                                                                                                    
                                                                                                    
                                                                                                    
                                                                                                    
                                                                                                    
                                                                                                    
                                                                                                    
                           
<?xpacket end="w"?></metadata>
<defs>
    <style>
      .cls-1 {
        fill: #585858;
      }

      .cls-1, .cls-2 {
        fill-rule: evenodd;
      }

      .cls-2 {
        fill: url(#linear-gradient);
      }
    </style>
    <linearGradient id="linear-gradient" x1="1509" y1="301.5" x2="1526" y2="301.5" gradientUnits="userSpaceOnUse">
      <stop offset="0" stop-color="#ff9000"/>
      <stop offset="1" stop-color="#ffc600"/>
    </linearGradient>
  </defs>
  <path id="形状_21" data-name="形状 21" class="cls-1" d="M1531.54,312.619h-25.62V298.637a11.194,11.194,0,0,1,11.1-11.173,11.079,11.079,0,0,1,11.06,11.078V307.9a1.25,1.25,0,0,0,1.25,1.259,1.233,1.233,0,0,0,1.21-1.232v-9.384a13.54,13.54,0,1,0-27.08,0v14.077a2.461,2.461,0,0,0-2.46,2.46v2.461a2.46,2.46,0,0,0,2.46,2.46h28.08a2.461,2.461,0,0,0,2.46-2.46v-2.461A2.458,2.458,0,0,0,1531.54,312.619Zm0.14,3.788a1.259,1.259,0,0,1-1.25,1.251h-25.86a1.259,1.259,0,0,1-1.25-1.251h0a1.259,1.259,0,0,1,1.25-1.25h25.86a1.259,1.259,0,0,1,1.25,1.25h0Z" transform="translate(-1501 -285)"/>
  <path id="圆角矩形_4_拷贝" data-name="圆角矩形 4 拷贝" class="cls-2" d="M1510.5,300h14a1.5,1.5,0,0,1,0,3h-14A1.5,1.5,0,0,1,1510.5,300Zm7-7a1.5,1.5,0,0,1,1.5,1.5v14a1.5,1.5,0,0,1-3,0v-14A1.5,1.5,0,0,1,1517.5,293Z" transform="translate(-1501 -285)"/>
</svg>
