<svg id="组_3" data-name="组 3" xmlns="http://www.w3.org/2000/svg" xmlns:xlink="http://www.w3.org/1999/xlink" width="127.999" height="121.262" viewBox="0 0 38 36">
  <metadata><?xpacket begin="﻿" id="W5M0MpCehiHzreSzNTczkc9d"?>
<x:xmpmeta xmlns:x="adobe:ns:meta/" x:xmptk="Adobe XMP Core 5.6-c142 79.160924, 2017/07/13-01:06:39        ">
   <rdf:RDF xmlns:rdf="http://www.w3.org/1999/02/22-rdf-syntax-ns#">
      <rdf:Description rdf:about=""/>
   </rdf:RDF>
</x:xmpmeta>
                                                                                                    
                                                                                                    
                                                                                                    
                                                                                                    
                                                                                                    
                                                                                                    
                                                                                                    
                                                                                                    
                                                                                                    
                                                                                                    
                                                                                                    
                                                                                                    
                                                                                                    
                                                                                                    
                                                                                                    
                                                                                                    
                                                                                                    
                                                                                                    
                                                                                                    
                                                                                                    
                           
<?xpacket end="w"?></metadata>
<defs>
    <style>
      .cls-1 {
        fill: #585858;
      }

      .cls-1, .cls-2 {
        fill-rule: evenodd;
      }

      .cls-2 {
        fill: url(#linear-gradient);
      }
    </style>
    <linearGradient id="linear-gradient" x1="277" y1="304" x2="298" y2="304" gradientUnits="userSpaceOnUse">
      <stop offset="0" stop-color="#ff9000"/>
      <stop offset="1" stop-color="#ffc600"/>
    </linearGradient>
  </defs>
  <path id="形状_5" data-name="形状 5" class="cls-1" d="M293.667,286.508H281.541a1.259,1.259,0,0,1-1.258-1.254h0A1.259,1.259,0,0,1,281.541,284h12.126a1.259,1.259,0,0,1,1.258,1.254h0A1.259,1.259,0,0,1,293.667,286.508ZM302.054,320H273.945A4.938,4.938,0,0,1,269,315.068v-21.28a4.938,4.938,0,0,1,4.945-4.932h3.463a1.256,1.256,0,0,1,1.258,1.254h0a1.256,1.256,0,0,1-1.258,1.254h-3.463a2.427,2.427,0,0,0-2.43,2.424v21.28a2.427,2.427,0,0,0,2.43,2.424h28.109a2.427,2.427,0,0,0,2.431-2.424v-21.28a2.427,2.427,0,0,0-2.431-2.424H298.56a1.256,1.256,0,0,1-1.258-1.254h0a1.256,1.256,0,0,1,1.258-1.254h3.494A4.939,4.939,0,0,1,307,293.788v21.28A4.939,4.939,0,0,1,302.054,320Z" transform="translate(-269 -284)"/>
  <path id="圆角矩形_4_拷贝_2" data-name="圆角矩形 4 拷贝 2" class="cls-2" d="M278.5,296h18a1.5,1.5,0,0,1,0,3h-18A1.5,1.5,0,0,1,278.5,296Zm5,7h8a1.5,1.5,0,0,1,0,3h-8A1.5,1.5,0,0,1,283.5,303Zm-5,6h18a1.5,1.5,0,0,1,0,3h-18A1.5,1.5,0,0,1,278.5,309Z" transform="translate(-269 -284)"/>
</svg>
