<svg xmlns="http://www.w3.org/2000/svg" width="127.999" height="127.999" viewBox="0 0 31 31">
  <metadata><?xpacket begin="﻿" id="W5M0MpCehiHzreSzNTczkc9d"?>
<x:xmpmeta xmlns:x="adobe:ns:meta/" x:xmptk="Adobe XMP Core 5.6-c142 79.160924, 2017/07/13-01:06:39        ">
   <rdf:RDF xmlns:rdf="http://www.w3.org/1999/02/22-rdf-syntax-ns#">
      <rdf:Description rdf:about=""/>
   </rdf:RDF>
</x:xmpmeta>
                                                                                                    
                                                                                                    
                                                                                                    
                                                                                                    
                                                                                                    
                                                                                                    
                                                                                                    
                                                                                                    
                                                                                                    
                                                                                                    
                                                                                                    
                                                                                                    
                                                                                                    
                                                                                                    
                                                                                                    
                                                                                                    
                                                                                                    
                                                                                                    
                                                                                                    
                                                                                                    
                           
<?xpacket end="w"?></metadata>
<defs>
    <style>
      .cls-1 {
        fill: #fff;
        fill-rule: evenodd;
      }
    </style>
  </defs>
  <path id="形状_1" data-name="形状 1" class="cls-1" d="M76.166,56A16.006,16.006,0,0,1,65.1,51.43l-2.646-2.646a0.685,0.685,0,0,1,0-1.042L65.5,44.7a1.158,1.158,0,0,1,.561-0.16,0.485,0.485,0,0,1,.481.241L69.271,47.5a9.652,9.652,0,0,0,6.814,2.806A9.239,9.239,0,0,0,82.5,34.513l-2.806-2.806a1.157,1.157,0,0,1-.16-0.561,0.485,0.485,0,0,1,.24-0.481l2.966-3.047a0.693,0.693,0,0,1,.481-0.24,0.571,0.571,0,0,1,.481.24L86.588,30.5a15.015,15.015,0,0,1-.4,21.648A14.617,14.617,0,0,1,76.166,56h0ZM72.077,32.268l-2.806-2.806a0.923,0.923,0,0,1,0-1.363l2.806-2.806a0.923,0.923,0,0,1,1.363,0L76.246,28.1a0.923,0.923,0,0,1,0,1.363L73.44,32.268a0.921,0.921,0,0,1-1.363,0h0Zm0,0M63.1,41.248l-2.806-2.806a0.923,0.923,0,0,1,0-1.363l5.371-5.372a0.922,0.922,0,0,1,1.363,0l2.806,2.806a0.923,0.923,0,0,1,0,1.363l-5.371,5.372a0.922,0.922,0,0,1-1.363,0h0Zm0,0" transform="translate(-60 -25)"/>
</svg>
