<?xml version="1.0" encoding="utf-8"?>
<!-- Generator: Adobe Illustrator 16.0.0, SVG Export Plug-In . SVG Version: 6.00 Build 0)  -->
<!DOCTYPE svg PUBLIC "-//W3C//DTD SVG 1.1//EN" "http://www.w3.org/Graphics/SVG/1.1/DTD/svg11.dtd">
<svg version="1.1" id="图层_1" xmlns="http://www.w3.org/2000/svg" xmlns:xlink="http://www.w3.org/1999/xlink" x="0px" y="0px"
	 width="88px" height="88px" viewBox="0 0 88 88" enable-background="new 0 0 88 88" xml:space="preserve">
<g>
	<g>
		<path fill="#575858" d="M69.872,1.189H18.128C8.131,1.189,0,9.325,0,19.326v36.845c0,9.999,8.131,18.135,18.128,18.135h23.109
			v6.016H8.998c-1.058,0-1.914,0.989-1.914,2.197v2.093c0,1.21,0.856,2.199,1.914,2.199h32.239h5.524h32.24
			c1.057,0,1.914-0.989,1.914-2.199v-2.093c0-1.208-0.857-2.197-1.914-2.197h-32.24v-6.016h23.11C79.866,74.306,88,66.17,88,56.171
			V19.326C88,9.325,79.866,1.189,69.872,1.189z M82.879,56.171c0,7.172-5.837,13.011-13.007,13.011H18.128
			c-7.172,0-13.006-5.839-13.006-13.011V19.326c0-7.175,5.834-13.013,13.006-13.013h51.744c7.17,0,13.007,5.838,13.007,13.013
			V56.171z"/>
	</g>
</g>
<g>
	<g>
		<linearGradient id="SVGID_1_" gradientUnits="userSpaceOnUse" x1="14.2695" y1="36.5586" x2="73.7295" y2="36.5586">
			<stop  offset="0" style="stop-color:#F18C19"/>
			<stop  offset="1" style="stop-color:#F5C01B"/>
			<stop  offset="1" style="stop-color:#FFFFFF"/>
		</linearGradient>
		<path fill="url(#SVGID_1_)" d="M72.396,34.409c-1.635-6.495-4.806-12.669-9.421-18.349c-2.332-2.877-5.059-4.461-7.679-4.461
			c-3.01,0-5.365,2.063-6.146,5.384l-0.058,0.3l-3.013,32.533c-0.272,2.239,0.281,4.209,1.645,5.847
			c2.425,2.924,7.126,4.369,14.793,4.541c1.503,0.868,2.934,1.314,4.257,1.328c0.851,0,2.111-0.188,3.303-1.087
			c1.45-1.094,2.365-2.922,2.718-5.433C74.162,47.81,74.027,40.878,72.396,34.409z M67.44,53.997l-0.019,0.148
			c-0.202,1.426-0.534,1.739-0.646,1.739c-0.167,0-0.808-0.063-2.048-0.866l-0.65-0.432h-0.767
			c-8.511-0.104-10.854-1.845-11.47-2.593c-0.334-0.396-0.44-0.856-0.362-1.537l3.006-32.31c0.248-0.907,0.608-0.921,0.824-0.929
			h0.003c0.927,0.012,2.297,0.973,3.498,2.456C66.962,29.698,69.865,41.245,67.44,53.997z M38.904,17.313l-0.046-0.286l-0.012-0.058
			c-0.781-3.321-3.138-5.384-6.153-5.384c-2.616,0-5.344,1.585-7.679,4.463c-4.619,5.689-7.788,11.863-9.417,18.352
			c-1.625,6.511-1.759,13.441-0.401,20.6c0.353,2.511,1.269,4.339,2.72,5.431c1.19,0.898,2.453,1.087,3.303,1.087
			c1.318,0,2.751-0.446,4.26-1.329c7.666-0.181,12.367-1.626,14.789-4.536c1.361-1.642,1.915-3.609,1.645-5.851L38.904,17.313z
			 M36.146,52.013c-0.61,0.741-2.946,2.481-11.449,2.586h-0.778l-0.658,0.425c-1.235,0.813-1.877,0.875-2.043,0.875
			c-0.114,0-0.451-0.309-0.645-1.716l-0.008-0.089l-0.011-0.083c-2.425-12.751,0.477-24.3,8.627-34.324
			c1.211-1.492,2.591-2.456,3.513-2.456c0.215,0,0.571,0,0.831,0.918l2.987,32.313l0.003,0.019
			C36.594,51.149,36.485,51.606,36.146,52.013z"/>
	</g>
</g>
</svg>
