<?xml version="1.0" encoding="utf-8"?>
<!-- Generator: Adobe Illustrator 21.0.0, SVG Export Plug-In . SVG Version: 6.00 Build 0)  -->
<svg version="1.1" id="图层_1" xmlns="http://www.w3.org/2000/svg" xmlns:xlink="http://www.w3.org/1999/xlink" x="0px" y="0px"
	 viewBox="0 0 88 88" style="enable-background:new 0 0 88 88;" xml:space="preserve">
<style type="text/css">
	.st0{fill:#585858;}
	.st1{fill-rule:evenodd;clip-rule:evenodd;fill:url(#SVGID_1_);}
</style>
<g>
	<g>
		<g>
			<path class="st0" d="M53,82.1H10.8c-2,0-3.6-1.6-3.6-3.6v-69c0-2,1.6-3.6,3.6-3.6h59.5c2,0,3.6,1.6,3.6,3.6c0,5,0,14.9-0.1,19.7
				c0,4.8-0.1,9.8-0.1,14.8c0,1.1,0.5,2.1,1.5,2.6c0.9,0.5,2.1,0.5,3,0c0.9-0.5,1.5-1.5,1.5-2.6c0-5,0-10,0.1-14.8
				c0-4.8,0.1-14.7,0.1-19.7c0-5.2-4.3-9.5-9.6-9.5H10.8C5.5,0,1.2,4.3,1.2,9.5v69c0,5.2,4.3,9.5,9.6,9.5H53v0
				c1.1,0,2.1-0.5,2.6-1.5c0.5-0.9,0.5-2.1,0-3C55.1,82.6,54.1,82.1,53,82.1z M83.3,58c-4-4-10.3-4.6-14.9-1.7
				c-4.7-2.9-10.9-2.3-15,1.7c-4.7,4.7-4.7,12.2,0,16.9c0.1,0.1,0.1,0.1,0.2,0.2l12.8,10.7c0.5,0.4,1.2,0.7,1.9,0.7
				c0.7,0,1.4-0.2,1.9-0.7L83.1,75c0.1-0.1,0.1-0.1,0.2-0.2C88,70.2,87.9,62.6,83.3,58z M79.1,70.6l-10.8,9l-10.8-9v0
				c-2.3-2.4-2.2-6.2,0.1-8.5c2.4-2.3,6.2-2.3,8.6,0c1.2,1.1,3,1.2,4.2,0c2.4-2.3,6.2-2.3,8.6,0C81.4,64.5,81.4,68.2,79.1,70.6z"/>
		</g>
	</g>
	<g>
		<g>
			<linearGradient id="SVGID_1_" gradientUnits="userSpaceOnUse" x1="15.8892" y1="40.3327" x2="67.2216" y2="40.3327">
				<stop  offset="0" style="stop-color:#FF9000"/>
				<stop  offset="1" style="stop-color:#FFC600"/>
			</linearGradient>
			<path class="st1" d="M63.6,17.1h-44c-2,0-3.7,1.6-3.7,3.7c0,2,1.6,3.7,3.7,3.7h44c2,0,3.7-1.6,3.7-3.7
				C67.2,18.8,65.6,17.1,63.6,17.1z M46.4,36.7H19.6c-2,0-3.7,1.6-3.7,3.7c0,2,1.6,3.7,3.7,3.7h26.9c2,0,3.7-1.6,3.7-3.7
				C50.1,38.3,48.5,36.7,46.4,36.7z M34.2,56.2H19.6c-2,0-3.7,1.6-3.7,3.7c0,2,1.6,3.7,3.7,3.7h14.7c2,0,3.7-1.6,3.7-3.7
				C37.9,57.9,36.2,56.2,34.2,56.2z"/>
		</g>
	</g>
</g>
</svg>
