<svg id="组_3" data-name="组 3" xmlns="http://www.w3.org/2000/svg" xmlns:xlink="http://www.w3.org/1999/xlink" width="117.332" height="127.998" viewBox="0 0 33 36">
  <metadata><?xpacket begin="﻿" id="W5M0MpCehiHzreSzNTczkc9d"?>
<x:xmpmeta xmlns:x="adobe:ns:meta/" x:xmptk="Adobe XMP Core 5.6-c142 79.160924, 2017/07/13-01:06:39        ">
   <rdf:RDF xmlns:rdf="http://www.w3.org/1999/02/22-rdf-syntax-ns#">
      <rdf:Description rdf:about=""/>
   </rdf:RDF>
</x:xmpmeta>
                                                                                                    
                                                                                                    
                                                                                                    
                                                                                                    
                                                                                                    
                                                                                                    
                                                                                                    
                                                                                                    
                                                                                                    
                                                                                                    
                                                                                                    
                                                                                                    
                                                                                                    
                                                                                                    
                                                                                                    
                                                                                                    
                                                                                                    
                                                                                                    
                                                                                                    
                                                                                                    
                           
<?xpacket end="w"?></metadata>
<defs>
    <style>
      .cls-1 {
        fill: #585858;
      }

      .cls-1, .cls-2 {
        fill-rule: evenodd;
      }

      .cls-2 {
        fill: url(#linear-gradient);
      }
    </style>
    <linearGradient id="linear-gradient" x1="1265" y1="615.5" x2="1278" y2="615.5" gradientUnits="userSpaceOnUse">
      <stop offset="0" stop-color="#ff9000"/>
      <stop offset="1" stop-color="#ffc600"/>
    </linearGradient>
  </defs>
  <path id="形状_30" data-name="形状 30" class="cls-1" d="M1260.09,617.266a1.115,1.115,0,0,0,.17.012,1.291,1.291,0,0,0,.87-0.34,1.278,1.278,0,0,0,.41-1.008v-5.592c0-.918,1.14-1.838,3.12-2.524a22.316,22.316,0,0,1,6.96-1.059c4.74,0,9.85,1.37,9.85,3.583v5.6a1.335,1.335,0,0,0,2.67,0v-5.6c0-1.5-.76-3.582-4.37-4.99l-0.01,0a26.079,26.079,0,0,0-16.87.123c-2.67,1.117-4.08,2.777-4.08,4.8v5.684A1.406,1.406,0,0,0,1260.09,617.266Zm27.88,20.949v-0.027l-0.01-.025a14.776,14.776,0,0,0-11.24-9.184,11.329,11.329,0,0,0,6.16-10.116,1.33,1.33,0,1,0-2.66,0v0.014a8.711,8.711,0,1,1-17.4,0v-0.014a1.33,1.33,0,1,0-2.66,0,11.329,11.329,0,0,0,6.16,10.117,14.776,14.776,0,0,0-11.24,9.184l-0.01.011a1.388,1.388,0,0,0,.78,1.72l0.03,0.011,0.02,0a1.121,1.121,0,0,0,.37.007,1.2,1.2,0,0,0,1.21-.828c2.55-6.57,9.01-7.95,13.98-7.95s11.41,1.381,13.99,7.963a1.425,1.425,0,0,0,.71.74,1.35,1.35,0,0,0,.55.141,1.227,1.227,0,0,0,.2.017,1.094,1.094,0,0,0,.22-0.022l0.06-.01,0.04-.03A1.667,1.667,0,0,0,1287.97,638.215Z" transform="translate(-1255 -604)"/>
  <path id="形状_31" data-name="形状 31" class="cls-2" d="M1276.53,616.937a1.438,1.438,0,1,0,0-2.875h-3.57v-3.625a1.465,1.465,0,0,0-2.93,0v3.625h-3.57a1.438,1.438,0,1,0,0,2.875h3.57v3.624a1.459,1.459,0,0,0,1.46,1.438h0.06a1.425,1.425,0,0,0,1-.407,1.357,1.357,0,0,0,.41-1.038v-3.618h3.57Z" transform="translate(-1255 -604)"/>
</svg>
