<svg id="组_3" data-name="组 3" xmlns="http://www.w3.org/2000/svg" xmlns:xlink="http://www.w3.org/1999/xlink" width="112.761" height="127.999" viewBox="0 0 37 42">
  <metadata><?xpacket begin="﻿" id="W5M0MpCehiHzreSzNTczkc9d"?>
<x:xmpmeta xmlns:x="adobe:ns:meta/" x:xmptk="Adobe XMP Core 5.6-c142 79.160924, 2017/07/13-01:06:39        ">
   <rdf:RDF xmlns:rdf="http://www.w3.org/1999/02/22-rdf-syntax-ns#">
      <rdf:Description rdf:about=""/>
   </rdf:RDF>
</x:xmpmeta>
                                                                                                    
                                                                                                    
                                                                                                    
                                                                                                    
                                                                                                    
                                                                                                    
                                                                                                    
                                                                                                    
                                                                                                    
                                                                                                    
                                                                                                    
                                                                                                    
                                                                                                    
                                                                                                    
                                                                                                    
                                                                                                    
                                                                                                    
                                                                                                    
                                                                                                    
                                                                                                    
                           
<?xpacket end="w"?></metadata>
<defs>
    <style>
      .cls-1 {
        fill: #585858;
      }

      .cls-1, .cls-2 {
        fill-rule: evenodd;
      }

      .cls-2 {
        fill: url(#linear-gradient);
      }
    </style>
    <linearGradient id="linear-gradient" x1="761" y1="626" x2="793" y2="626" gradientUnits="userSpaceOnUse">
      <stop offset="0" stop-color="#ff9000"/>
      <stop offset="1" stop-color="#ffc600"/>
    </linearGradient>
  </defs>
  <path id="形状_26" data-name="形状 26" class="cls-1" d="M796.484,622.013a1.524,1.524,0,0,0-1.515,1.53V624.8c0,3.866,0,7.864-.016,11.8a1.526,1.526,0,0,0,1.513,1.535h0a1.525,1.525,0,0,0,1.515-1.526c0.013-4.03.014-8.186,0.015-11.852v-1.212A1.525,1.525,0,0,0,796.484,622.013Zm-0.414-1.631a1.542,1.542,0,0,0,.383-2.13,17.972,17.972,0,0,0-1.383-1.6,13.818,13.818,0,0,0-1.085-1.086h0a16.624,16.624,0,0,0-5.546-3.117,43,43,0,0,0-6.021-1.49l-0.023,0c-1.154-.208-2.291-0.371-3.39-0.529-3.249-.465-6.317-0.9-9.174-2.385-0.27-.167-0.962-0.607-1.23-0.83l-0.017-.017c-0.056-.055-0.186-0.182-0.265-0.27-0.647-.719.41-2.091,0.627-2.355a7.049,7.049,0,0,1,8.4-1.854c1.565,0.756,3.364,2.4,3.286,4.532a1.528,1.528,0,0,0,.4,1.1,1.5,1.5,0,0,0,1.055.489,1.527,1.527,0,0,0,1.571-1.473,7.128,7.128,0,0,0-1.489-4.555,9.6,9.6,0,0,0-3.536-2.861l-0.014-.007a10.206,10.206,0,0,0-6.4-.713,9.877,9.877,0,0,0-5.6,3.381l-0.011.014a6.8,6.8,0,0,0-1.438,2.88,4.229,4.229,0,0,0,.016,1.812c0.785,4.394,2.872,8.177,5.613,10.151a5.009,5.009,0,0,0,2.924,1.1,3.632,3.632,0,0,0,.719-0.073,4.284,4.284,0,0,0,3.1-3.473,1.516,1.516,0,1,0-2.97-.606,1.343,1.343,0,0,1-.733,1.079,1.82,1.82,0,0,1-1.28-.52,9.964,9.964,0,0,1-2.9-3.633,34.324,34.324,0,0,0,8.916,2.119c1.073,0.154,2.183.313,3.277,0.51,4.148,0.8,7.535,1.608,10.228,3.986A24.909,24.909,0,0,1,793.962,620a1.511,1.511,0,0,0,1.246.659A1.494,1.494,0,0,0,796.07,620.382ZM784.519,637.8a9.961,9.961,0,0,1-1.648.138h-7.923a9.979,9.979,0,0,1-9.917-10.018v-1.89a1.516,1.516,0,1,0-3.031,0v1.89a13.062,13.062,0,0,0,3.792,9.248A12.8,12.8,0,0,0,774.948,641h7.923a12.988,12.988,0,0,0,2.147-.179A1.507,1.507,0,0,0,786,640.2,1.531,1.531,0,0,0,784.519,637.8Z" transform="translate(-761 -599)"/>
  <path id="形状_27" data-name="形状 27" class="cls-2" d="M791.337,621.4a1.659,1.659,0,0,0-1.663,1.652v3.338a5.334,5.334,0,0,1-5.343,5.311H773.965a5.39,5.39,0,0,1-4.8-2.967,6.109,6.109,0,0,0,2.276-1.468,9.478,9.478,0,0,0,12.4-3.339,1.647,1.647,0,0,0-.529-2.276,1.671,1.671,0,0,0-2.291.525,6.141,6.141,0,0,1-8,2.184,6.006,6.006,0,0,0,.144-1.308,6.1,6.1,0,1,0-7.489,5.884A8.665,8.665,0,0,0,773.965,635h10.366A8.652,8.652,0,0,0,793,626.385v-3.338A1.659,1.659,0,0,0,791.337,621.4Zm-24.252-1.648a3.3,3.3,0,1,1-3.32,3.3A3.314,3.314,0,0,1,767.085,619.747Z" transform="translate(-761 -599)"/>
</svg>
